<svg xmlns="http://www.w3.org/2000/svg" width="900" height="760" viewBox="0 0 900 760" role="img" aria-labelledby="title desc">
  <title id="title">社区露台插画</title>
  <desc id="desc">柔和风格的社区楼台、绿植、灯光和坐在露台上的居民。</desc>
  <defs>
    <linearGradient id="sky" x1="0" x2="1" y1="0" y2="1">
      <stop offset="0" stop-color="#fbf4ea"/>
      <stop offset="0.55" stop-color="#f4ede3"/>
      <stop offset="1" stop-color="#e8edf0"/>
    </linearGradient>
    <linearGradient id="wall" x1="0" x2="1" y1="0" y2="1">
      <stop offset="0" stop-color="#fffdf8"/>
      <stop offset="1" stop-color="#ded8cc"/>
    </linearGradient>
    <linearGradient id="warm" x1="0" x2="0" y1="0" y2="1">
      <stop offset="0" stop-color="#ffe9a6"/>
      <stop offset="1" stop-color="#dca75a"/>
    </linearGradient>
    <filter id="softShadow" x="-20%" y="-20%" width="140%" height="150%">
      <feDropShadow dx="0" dy="18" stdDeviation="22" flood-color="#95866f" flood-opacity="0.22"/>
    </filter>
    <filter id="blur">
      <feGaussianBlur stdDeviation="5"/>
    </filter>
  </defs>
  <rect width="900" height="760" fill="url(#sky)"/>
  <g opacity="0.35" filter="url(#blur)">
    <rect x="35" y="258" width="166" height="250" rx="18" fill="#d7d7cf"/>
    <rect x="84" y="208" width="110" height="300" rx="18" fill="#eeeeea"/>
    <rect x="698" y="220" width="132" height="278" rx="18" fill="#e8e4dc"/>
  </g>
  <g filter="url(#softShadow)">
    <path d="M426 198h331c39 0 70 31 70 70v284H356V268c0-39 31-70 70-70Z" fill="url(#wall)"/>
    <path d="M350 513h492c21 0 38 17 38 38v69H312v-69c0-21 17-38 38-38Z" fill="#f7f0e5"/>
    <path d="M372 560h468v74H372z" fill="#e7ded0"/>
    <path d="M380 162h430c19 0 34 15 34 34v72c0 19-15 34-34 34H380c-19 0-34-15-34-34v-72c0-19 15-34 34-34Z" fill="#fffaf1"/>
    <path d="M565 310h120c14 0 26 12 26 26v114H539V336c0-14 12-26 26-26Z" fill="#e8dfd2"/>
    <path d="M573 324h103c9 0 17 8 17 17v91H556v-91c0-9 8-17 17-17Z" fill="#6c7780"/>
    <path d="M575 345h99v87h-99z" fill="#f5c96e"/>
    <path d="M544 334h159l-22-48H566z" fill="#48545d"/>
    <path d="M456 248h96c13 0 24 11 24 24v66H432v-66c0-13 11-24 24-24Z" fill="#ded2c3"/>
    <rect x="457" y="270" width="93" height="51" rx="10" fill="#b9956f"/>
    <rect x="471" y="283" width="64" height="25" rx="6" fill="#f1dec2"/>
  </g>
  <g>
    <path d="M302 412h270" stroke="#49535a" stroke-width="15" stroke-linecap="round"/>
    <path d="M302 512h270" stroke="#49535a" stroke-width="15" stroke-linecap="round"/>
    <path d="M322 408v108M552 408v108" stroke="#49535a" stroke-width="13" stroke-linecap="round"/>
    <path d="M694 402h132M694 512h132M710 398v118M812 398v118" stroke="#49535a" stroke-width="13" stroke-linecap="round"/>
  </g>
  <g>
    <path d="M734 138c-28 16-36 61-31 95 34-7 71-34 76-78 2-18-20-27-45-17Z" fill="#9eb58c"/>
    <path d="M775 138c4 49 0 94-15 143" stroke="#6f855d" stroke-width="7" stroke-linecap="round"/>
    <path d="M812 164c-29 5-55 38-64 74 36 7 76-7 93-40 10-21-7-39-29-34Z" fill="#a7bf90"/>
    <path d="M774 410c-3 67-13 128-34 182" stroke="#78905f" stroke-width="12" stroke-linecap="round"/>
    <circle cx="748" cy="430" r="18" fill="#89a76f"/>
    <circle cx="766" cy="476" r="18" fill="#a2bd87"/>
    <circle cx="734" cy="515" r="16" fill="#7e9b65"/>
    <circle cx="752" cy="560" r="17" fill="#9fba81"/>
  </g>
  <g>
    <path d="M300 610c18-28 68-45 104-16 25 20 31 54 21 89H269c0-30 10-56 31-73Z" fill="#e9e4d9"/>
    <path d="M303 589c36-18 65-13 91 14" stroke="#8a6c54" stroke-width="10" stroke-linecap="round"/>
    <ellipse cx="352" cy="480" rx="40" ry="48" fill="#f1c5a9"/>
    <path d="M318 463c5-43 43-67 80-43 17 11 23 31 16 53-21-14-43-19-69-4-12 7-21 7-27-6Z" fill="#292824"/>
    <path d="M320 527c47 54 92 65 136 32l20 46c-66 39-131 26-188-45z" fill="#2f3439"/>
    <path d="M384 544l98 44" stroke="#f6f0e5" stroke-width="18" stroke-linecap="round"/>
    <path d="M408 602l66 86M342 603l-26 88" stroke="#ece8de" stroke-width="20" stroke-linecap="round"/>
    <circle cx="338" cy="483" r="5" fill="#202020"/>
    <circle cx="371" cy="483" r="5" fill="#202020"/>
    <path d="M341 505c12 8 24 8 36 0" stroke="#bd836c" stroke-width="5" stroke-linecap="round"/>
    <path d="M244 578h180c12 0 22 10 22 22v14H222v-14c0-12 10-22 22-22Z" fill="#c6a06d"/>
  </g>
  <g>
    <rect x="622" y="462" width="46" height="70" rx="16" fill="#525960"/>
    <rect x="630" y="476" width="30" height="38" rx="8" fill="url(#warm)"/>
    <path d="M646 442v24" stroke="#555" stroke-width="8" stroke-linecap="round"/>
  </g>
  <g>
    <path d="M170 548c34-21 75-8 82 33 5 31-13 57-44 65-40 11-77-12-78-49-1-20 14-35 40-49Z" fill="#fff9ef"/>
    <circle cx="185" cy="571" r="8" fill="#343434"/>
    <path d="M212 585c18 7 32 5 43-7" stroke="#ddd0be" stroke-width="8" stroke-linecap="round"/>
  </g>
  <g>
    <rect x="358" y="300" width="176" height="92" rx="34" fill="#fffdf8" filter="url(#softShadow)"/>
    <path d="M440 392l-22 25v-25z" fill="#fffdf8"/>
    <text x="404" y="346" font-family="Microsoft YaHei, sans-serif" font-size="28" font-weight="800" fill="#222">今晚 7 点</text>
    <text x="404" y="378" font-family="Microsoft YaHei, sans-serif" font-size="26" font-weight="800" fill="#222">谁能帮忙？</text>
  </g>
</svg>
